<?xml version="1.0" encoding="UTF-8" standalone="no"?>
<svg
   xmlns:dc="http://purl.org/dc/elements/1.1/"
   xmlns:cc="http://creativecommons.org/ns#"
   xmlns:rdf="http://www.w3.org/1999/02/22-rdf-syntax-ns#"
   xmlns:svg="http://www.w3.org/2000/svg"
   xmlns="http://www.w3.org/2000/svg"
   viewBox="0 0 462.41333 114.14667"
   height="114.14667"
   width="462.41333"
   xml:space="preserve"
   id="svg2"
   version="1.1"><metadata
     id="metadata8"><rdf:RDF><cc:Work
         rdf:about=""><dc:format>image/svg+xml</dc:format><dc:type
           rdf:resource="http://purl.org/dc/dcmitype/StillImage" /></cc:Work></rdf:RDF></metadata><defs
     id="defs6" /><g
     transform="matrix(1.3333333,0,0,-1.3333333,0,114.14667)"
     id="g10"><g
       transform="scale(0.1)"
       id="g12"><path
         id="path14"
         style="fill:#010000;fill-opacity:1;fill-rule:nonzero;stroke:none"
         d="m 121.426,545.648 h 159.941 c 23.828,0 42.637,6.27 56.438,18.817 13.797,13.172 20.703,31.672 20.703,55.508 v 43.273 c 0,23.832 -6.906,42.024 -20.703,54.567 -13.801,12.542 -32.61,18.812 -56.438,18.812 H 121.426 Z M -2.75391,188.152 V 844.816 H 292.656 c 30.098,0 57.071,-5.015 80.899,-15.05 24.465,-9.411 45.156,-23.207 62.09,-41.395 16.945,-17.566 29.804,-38.891 38.585,-63.976 8.778,-25.086 13.165,-52.68 13.165,-82.79 0,-30.73 -4.387,-58.64 -13.165,-83.73 -8.781,-24.457 -21.64,-45.781 -38.585,-63.969 -16.934,-17.558 -37.625,-31.355 -62.09,-41.394 -23.828,-9.407 -50.801,-14.114 -80.899,-14.114 H 121.426 V 188.152 H -2.75391" /><path
         id="path16"
         style="fill:#010000;fill-opacity:1;fill-rule:nonzero;stroke:none"
         d="m 750.762,264.355 c 26.972,0 49.863,5.958 68.679,17.872 18.813,11.921 28.227,29.484 28.227,52.683 v 64.922 h -77.141 c -62.722,0 -94.082,-20.074 -94.082,-60.215 v -15.996 c 0,-20.066 6.27,-35.125 18.809,-45.152 13.184,-9.406 31.68,-14.114 55.508,-14.114 z m 199.453,-76.203 c -26.348,0 -47.363,7.532 -63.035,22.582 -15.051,15.672 -24.465,36.375 -28.227,62.086 h -5.64 c -8.157,-31.98 -24.778,-56.129 -49.868,-72.437 -25.078,-15.688 -56.132,-23.528 -93.132,-23.528 -50.176,0 -88.75,13.172 -115.723,39.524 -26.961,26.348 -40.449,61.465 -40.449,105.359 0,50.801 18.195,88.438 54.558,112.903 36.391,25.086 88.125,37.625 155.239,37.625 h 83.73 v 35.754 c 0,27.593 -7.207,48.918 -21.645,63.972 -14.421,15.051 -37.625,22.578 -69.605,22.578 -28.234,0 -51.125,-6.273 -68.684,-18.816 -16.941,-11.914 -31.355,-26.344 -43.281,-43.277 l -71.492,63.972 c 18.184,28.223 42.332,50.801 72.43,67.735 30.117,17.562 69.929,26.343 119.48,26.343 66.484,0 116.977,-15.054 151.477,-45.156 34.48,-30.105 51.738,-73.379 51.738,-129.828 V 284.109 H 1017 v -95.957 h -66.785" /><path
         id="path18"
         style="fill:#010000;fill-opacity:1;fill-rule:nonzero;stroke:none"
         d="m 1417.58,679.238 h 112.89 L 1332.9,100.664 C 1326.63,83.0977 1319.41,68.0469 1311.26,55.4961 1303.73,42.3359 1294.65,31.6719 1283.98,23.5156 1273.31,15.3633 1260.47,9.40234 1245.4,5.64453 1230.35,1.875 1212.79,0 1192.72,0 h -72.44 v 95.957 h 88.43 l 22.59,68.672 -175.93,514.609 h 119.48 l 85.62,-259.66 31.97,-124.18 h 5.66 l 33.86,124.18 85.62,259.66" /><path
         id="path20"
         style="fill:#010000;fill-opacity:1;fill-rule:nonzero;stroke:none"
         d="m 1830.97,176.855 c -56.46,0 -104.44,10.047 -143.95,30.118 -38.89,20.07 -72.44,46.406 -100.65,79.011 l 83.73,80.918 c 22.57,-26.343 47.65,-46.414 75.25,-60.211 28.22,-13.8 59.28,-20.707 93.15,-20.707 38.25,0 67.1,8.164 86.55,24.465 19.43,16.946 29.16,39.524 29.16,67.742 0,21.946 -6.28,39.829 -18.82,53.625 -12.55,13.797 -36.06,23.829 -70.56,30.098 l -62.09,9.414 c -131.09,20.695 -196.63,84.356 -196.63,190.977 0,29.476 5.34,56.133 16.01,79.965 11.29,23.835 27.27,44.218 47.98,61.152 20.68,16.933 45.47,29.793 74.31,38.57 29.49,9.41 62.73,14.113 99.72,14.113 49.55,0 92.82,-8.152 129.83,-24.46 37.01,-16.309 68.68,-40.454 95.02,-72.442 l -84.66,-79.965 c -16.31,20.071 -36.08,36.375 -59.27,48.922 -23.21,12.543 -52.37,18.813 -87.5,18.813 -35.75,0 -62.72,-6.895 -80.91,-20.696 -17.56,-13.172 -26.34,-31.984 -26.34,-56.449 0,-25.082 7.21,-43.59 21.63,-55.504 14.44,-11.918 37.63,-20.695 69.62,-26.34 l 61.16,-11.289 c 66.47,-11.922 115.4,-33.242 146.75,-63.976 32,-30.102 47.98,-72.438 47.98,-126.996 0,-31.368 -5.63,-59.903 -16.92,-85.625 -10.67,-25.078 -26.66,-47.032 -47.98,-65.852 -20.7,-18.18 -46.42,-32.293 -77.15,-42.32 -30.11,-10.039 -64.91,-15.071 -104.42,-15.071" /><path
         id="path22"
         style="fill:#010000;fill-opacity:1;fill-rule:nonzero;stroke:none"
         d="m 2497.34,270 h -4.69 c -4.4,-12.539 -10.36,-24.465 -17.88,-35.754 -6.91,-10.652 -15.99,-20.379 -27.29,-29.156 -10.65,-8.781 -23.83,-15.676 -39.5,-20.695 -15.07,-5.032 -32.63,-7.54 -52.7,-7.54 -50.8,0 -89.68,16.622 -116.65,49.864 -26.97,33.242 -40.46,80.605 -40.46,142.058 v 310.461 h 120.42 v -298.23 c 0,-33.867 6.6,-59.887 19.77,-78.078 13.16,-17.559 34.18,-26.336 63.03,-26.336 11.91,0 23.51,1.558 34.8,4.695 11.93,3.145 22.27,7.844 31.05,14.109 8.79,6.907 15.99,15.051 21.64,24.465 5.64,10.039 8.46,21.641 8.46,34.805 v 324.57 h 120.42 V 188.152 H 2497.34 V 270" /><path
         id="path24"
         style="fill:#010000;fill-opacity:1;fill-rule:nonzero;stroke:none"
         d="m 2766.31,188.152 v 491.086 h 120.42 v -81.843 h 4.7 c 9.4,25.71 24.46,47.664 45.15,65.851 20.71,18.192 49.55,27.281 86.55,27.281 33.87,0 63.04,-8.156 87.5,-24.457 24.47,-16.308 42.64,-41.086 54.57,-74.324 h 1.87 c 8.79,27.594 26.04,50.805 51.75,69.617 26.35,19.442 59.27,29.164 98.79,29.164 48.29,0 85.28,-16.621 111,-49.859 26.34,-33.242 39.52,-80.594 39.52,-142.059 V 188.152 h -120.42 v 298.227 c 0,70.246 -26.34,105.367 -79.03,105.367 -11.91,0 -23.51,-1.883 -34.8,-5.641 -10.67,-3.14 -20.39,-8.156 -29.17,-15.054 -8.16,-6.278 -14.75,-14.426 -19.76,-24.465 -5.02,-9.402 -7.53,-20.691 -7.53,-33.867 V 188.152 H 3057 v 298.227 c 0,70.246 -26.34,105.367 -79.01,105.367 -11.29,0 -22.59,-1.883 -33.88,-5.641 -10.66,-3.14 -20.39,-8.156 -29.17,-15.054 -8.14,-6.278 -15.05,-14.426 -20.68,-24.465 -5.02,-9.402 -7.53,-20.691 -7.53,-33.867 V 188.152 h -120.42" /></g></g></svg>