<svg width="246" height="246" viewBox="0 0 246 246" fill="none" xmlns="http://www.w3.org/2000/svg">
<mask id="mask0_1653_11" style="mask-type:luminance" maskUnits="userSpaceOnUse" x="0" y="0" width="246" height="246">
<path d="M175.093 87.5466L105.056 157.584L122.566 175.093L210.111 87.5466L192.602 70.0373L175.093 52.5279L157.583 35.0186L122.565 70.0373L105.056 52.5279L140.074 17.5093L122.565 -5.04933e-05L87.5468 35.0186L70.0369 52.5279L87.5468 70.0373L105.056 87.5466L122.565 105.056L140.074 87.5466L157.583 70.0373L175.093 87.5466ZM52.5281 105.056L70.0375 122.566L52.5287 140.075L35.0188 122.565L52.5281 105.056ZM17.5099 105.056L0 122.565L105.056 227.622L122.565 245.13L245.13 122.565L227.621 105.056L122.565 210.112L70.0375 157.584L105.057 122.565L87.5473 105.056H87.5468L52.5281 70.0373L35.0188 87.5466L17.5099 105.056Z" fill="white"/>
</mask>
<g mask="url(#mask0_1653_11)">
<path d="M175.093 87.5466L105.056 157.584L122.566 175.093L210.111 87.5466L192.602 70.0373L175.093 52.5279L157.583 35.0186L122.565 70.0373L105.056 52.5279L140.074 17.5093L122.565 -5.04933e-05L87.5468 35.0186L70.0369 52.5279L87.5468 70.0373L105.056 87.5466L122.565 105.056L140.074 87.5466L157.583 70.0373L175.093 87.5466ZM52.5281 105.056L70.0375 122.566L52.5287 140.075L35.0188 122.565L52.5281 105.056ZM17.5099 105.056L0 122.565L105.056 227.622L122.565 245.13L245.13 122.565L227.621 105.056L122.565 210.112L70.0375 157.584L105.057 122.565L87.5473 105.056H87.5468L52.5281 70.0373L35.0188 87.5466L17.5099 105.056Z" fill="url(#paint0_linear_1653_11)"/>
</g>
<defs>
<linearGradient id="paint0_linear_1653_11" x1="122.565" y1="227.924" x2="122.565" y2="28.4506" gradientUnits="userSpaceOnUse">
<stop stop-color="#11B849"/>
<stop offset="1" stop-color="#61B2FC"/>
</linearGradient>
</defs>
</svg>
