<?xml version="1.0" encoding="UTF-8" standalone="no"?>
<svg
   xmlns:dc="http://purl.org/dc/elements/1.1/"
   xmlns:cc="http://creativecommons.org/ns#"
   xmlns:rdf="http://www.w3.org/1999/02/22-rdf-syntax-ns#"
   xmlns:svg="http://www.w3.org/2000/svg"
   xmlns="http://www.w3.org/2000/svg"
   viewBox="0 0 800 245.33333"
   height="245.33333"
   width="800"
   xml:space="preserve"
   id="svg2"
   version="1.1"><metadata
     id="metadata8"><rdf:RDF><cc:Work
         rdf:about=""><dc:format>image/svg+xml</dc:format><dc:type
           rdf:resource="http://purl.org/dc/dcmitype/StillImage" /></cc:Work></rdf:RDF></metadata><defs
     id="defs6"><clipPath
       id="clipPath20"
       clipPathUnits="userSpaceOnUse"><path
         id="path18"
         d="M 1315.95,1182.64 790.676,657.359 921.996,526.039 1578.59,1182.64 1447.27,1313.96 1315.95,1445.28 1184.63,1576.6 921.992,1313.96 790.676,1445.28 1053.31,1707.92 921.992,1839.24 659.355,1576.6 v 0 L 528.031,1445.28 h 0.004 -0.004 l 131.324,-131.32 v 0 l 131.321,-131.32 131.316,-131.32 v 0 l 131.318,131.32 v 0 l 131.32,131.32 z M 396.715,1051.32 528.035,919.996 396.719,788.68 265.395,920.004 Z m -262.637,0 v 0 L 2.75391,920.004 790.676,132.078 v 0 L 921.992,0.761719 1841.23,920.004 1709.91,1051.32 921.992,263.398 528.035,657.359 790.68,920.004 659.359,1051.32 h -0.004 l -262.64,262.64 -131.32,-131.32 v 0 z" /></clipPath><linearGradient
       id="linearGradient26"
       spreadMethod="pad"
       gradientTransform="matrix(0,1496.05,-1496.05,0,921.993,129.81)"
       gradientUnits="userSpaceOnUse"
       y2="0"
       x2="1"
       y1="0"
       x1="0"><stop
         id="stop22"
         offset="0"
         style="stop-opacity:1;stop-color:#11b849" /><stop
         id="stop24"
         offset="1"
         style="stop-opacity:1;stop-color:#61b2fc" /></linearGradient></defs><g
     transform="matrix(1.3333333,0,0,-1.3333333,0,245.33333)"
     id="g10"><g
       transform="scale(0.1)"
       id="g12"><g
         id="g14"><g
           clip-path="url(#clipPath20)"
           id="g16"><path
             id="path28"
             style="fill:url(#linearGradient26);fill-opacity:1;fill-rule:nonzero;stroke:none"
             d="M 1315.95,1182.64 790.676,657.359 921.996,526.039 1578.59,1182.64 1447.27,1313.96 1315.95,1445.28 1184.63,1576.6 921.992,1313.96 790.676,1445.28 1053.31,1707.92 921.992,1839.24 659.355,1576.6 v 0 L 528.031,1445.28 h 0.004 -0.004 l 131.324,-131.32 v 0 l 131.321,-131.32 131.316,-131.32 v 0 l 131.318,131.32 v 0 l 131.32,131.32 z M 396.715,1051.32 528.035,919.996 396.719,788.68 265.395,920.004 Z m -262.637,0 v 0 L 2.75391,920.004 790.676,132.078 v 0 L 921.992,0.761719 1841.23,920.004 1709.91,1051.32 921.992,263.398 528.035,657.359 790.68,920.004 659.359,1051.32 h -0.004 l -262.64,262.64 -131.32,-131.32 v 0 L 134.078,1051.32" /></g></g><path
         id="path30"
         style="fill:#010000;fill-opacity:1;fill-rule:nonzero;stroke:none"
         d="m 2645.41,967.598 h 159.94 c 23.83,0 42.64,6.269 56.44,18.816 13.8,13.172 20.7,31.676 20.7,55.506 v 43.28 c 0,23.83 -6.9,42.02 -20.7,54.56 -13.8,12.55 -32.61,18.81 -56.44,18.81 H 2645.41 Z M 2521.23,610.102 v 656.668 h 295.41 c 30.1,0 57.07,-5.02 80.9,-15.06 24.46,-9.41 45.16,-23.2 62.09,-41.39 16.94,-17.56 29.8,-38.89 38.58,-63.98 8.78,-25.08 13.17,-52.68 13.17,-82.78 0,-30.74 -4.39,-58.65 -13.17,-83.736 -8.78,-24.457 -21.64,-45.777 -38.58,-63.969 -16.93,-17.558 -37.63,-31.355 -62.09,-41.394 -23.83,-9.406 -50.8,-14.113 -80.9,-14.113 H 2645.41 V 610.102 h -124.18" /><path
         id="path32"
         style="fill:#010000;fill-opacity:1;fill-rule:nonzero;stroke:none"
         d="m 3274.75,686.309 c 26.97,0 49.86,5.953 68.68,17.871 18.81,11.922 28.22,29.48 28.22,52.679 v 64.922 h -77.14 c -62.72,0 -94.08,-20.07 -94.08,-60.211 v -16 c 0,-20.07 6.27,-35.121 18.81,-45.148 13.18,-9.41 31.68,-14.113 55.51,-14.113 z m 199.45,-76.207 c -26.35,0 -47.36,7.527 -63.04,22.578 -15.05,15.679 -24.46,36.379 -28.22,62.09 h -5.64 c -8.16,-31.981 -24.78,-56.129 -49.87,-72.438 -25.08,-15.684 -56.13,-23.523 -93.13,-23.523 -50.18,0 -88.75,13.171 -115.72,39.519 -26.97,26.344 -40.46,61.461 -40.46,105.363 0,50.797 18.2,88.438 54.57,112.899 36.38,25.086 88.12,37.625 155.23,37.625 h 83.73 v 35.754 c 0,27.597 -7.21,48.922 -21.64,63.972 -14.42,15.049 -37.63,22.579 -69.61,22.579 -28.23,0 -51.12,-6.27 -68.68,-18.817 -16.94,-11.914 -31.36,-26.344 -43.28,-43.277 l -71.5,63.974 c 18.19,28.23 42.34,50.8 72.43,67.74 30.12,17.56 69.94,26.34 119.49,26.34 66.48,0 116.97,-15.05 151.47,-45.16 34.49,-30.11 51.74,-73.379 51.74,-129.828 V 706.059 h 48.92 v -95.957 h -66.79" /><path
         id="path34"
         style="fill:#010000;fill-opacity:1;fill-rule:nonzero;stroke:none"
         d="m 3941.56,1101.19 h 112.89 L 3856.89,522.609 c -6.27,-17.558 -13.49,-32.609 -21.64,-45.16 -7.53,-13.168 -16.62,-23.828 -27.28,-31.98 -10.67,-8.16 -23.52,-14.117 -38.58,-17.879 -15.05,-3.762 -32.61,-5.641 -52.68,-5.641 h -72.44 v 95.961 h 88.43 l 22.58,68.668 -175.92,514.612 h 119.48 l 85.61,-259.659 31.98,-124.179 h 5.65 l 33.87,124.179 85.61,259.659" /><path
         id="path36"
         style="fill:#010000;fill-opacity:1;fill-rule:nonzero;stroke:none"
         d="m 4354.95,598.809 c -56.45,0 -104.43,10.043 -143.94,30.113 -38.89,20.066 -72.44,46.406 -100.66,79.019 l 83.73,80.911 c 22.57,-26.34 47.66,-46.411 75.26,-60.211 28.22,-13.801 59.27,-20.7 93.14,-20.7 38.25,0 67.1,8.161 86.55,24.457 19.44,16.942 29.16,39.524 29.16,67.743 0,21.949 -6.27,39.828 -18.82,53.625 -12.54,13.8 -36.06,23.828 -70.55,30.097 l -62.09,9.414 c -131.09,20.696 -196.63,84.356 -196.63,190.973 0,29.48 5.33,56.14 16,79.97 11.29,23.83 27.28,44.22 47.98,61.16 20.69,16.92 45.47,29.78 74.32,38.56 29.48,9.41 62.72,14.11 99.72,14.11 49.55,0 92.82,-8.15 129.83,-24.45 37,-16.31 68.67,-40.46 95.02,-72.45 l -84.67,-79.96 c -16.31,20.07 -36.07,36.38 -59.27,48.92 -23.21,12.54 -52.37,18.81 -87.5,18.81 -35.75,0 -62.71,-6.89 -80.91,-20.69 -17.55,-13.18 -26.33,-31.99 -26.33,-56.45 0,-25.08 7.21,-43.59 21.63,-55.5 14.43,-11.92 37.63,-20.7 69.62,-26.35 l 61.15,-11.285 c 66.48,-11.918 115.4,-33.243 146.76,-63.973 31.99,-30.106 47.98,-72.438 47.98,-127 0,-31.363 -5.64,-59.902 -16.93,-85.621 -10.66,-25.082 -26.66,-47.031 -47.98,-65.852 -20.7,-18.187 -46.41,-32.301 -77.15,-42.328 -30.1,-10.039 -64.91,-15.062 -104.42,-15.062" /><path
         id="path38"
         style="fill:#010000;fill-opacity:1;fill-rule:nonzero;stroke:none"
         d="m 5021.33,691.949 h -4.7 c -4.39,-12.539 -10.35,-24.461 -17.88,-35.75 -6.9,-10.66 -15.99,-20.379 -27.28,-29.16 -10.66,-8.777 -23.83,-15.68 -39.51,-20.699 -15.06,-5.02 -32.62,-7.531 -52.69,-7.531 -50.8,0 -89.69,16.621 -116.65,49.863 -26.97,33.238 -40.46,80.598 -40.46,142.058 v 310.46 h 120.42 V 802.961 c 0,-33.871 6.59,-59.891 19.76,-78.082 13.17,-17.559 34.18,-26.34 63.03,-26.34 11.91,0 23.52,1.563 34.81,4.699 11.92,3.141 22.26,7.844 31.04,14.114 8.79,6.898 16,15.046 21.64,24.457 5.65,10.043 8.47,21.64 8.47,34.812 v 324.569 h 120.42 V 610.102 h -120.42 v 81.847" /><path
         id="path40"
         style="fill:#010000;fill-opacity:1;fill-rule:nonzero;stroke:none"
         d="m 5290.29,610.102 v 491.088 h 120.42 v -81.85 h 4.7 c 9.41,25.71 24.46,47.67 45.16,65.86 20.7,18.19 49.55,27.28 86.55,27.28 33.87,0 63.04,-8.16 87.5,-24.46 24.46,-16.31 42.64,-41.09 54.56,-74.32 h 1.88 c 8.78,27.59 26.03,50.8 51.74,69.61 26.35,19.45 59.27,29.17 98.79,29.17 48.29,0 85.29,-16.62 111.01,-49.86 26.34,-33.24 39.51,-80.597 39.51,-142.061 V 610.102 h -120.42 v 298.226 c 0,70.246 -26.34,105.372 -79.02,105.372 -11.92,0 -23.52,-1.89 -34.81,-5.65 -10.66,-3.14 -20.39,-8.152 -29.17,-15.05 -8.15,-6.273 -14.74,-14.426 -19.75,-24.465 -5.02,-9.402 -7.53,-20.691 -7.53,-33.863 v -324.57 h -120.42 v 298.226 c 0,70.246 -26.34,105.372 -79.02,105.372 -11.29,0 -22.58,-1.89 -33.87,-5.65 -10.67,-3.14 -20.39,-8.152 -29.17,-15.05 -8.15,-6.273 -15.05,-14.426 -20.69,-24.465 -5.02,-9.402 -7.53,-20.691 -7.53,-33.863 v -324.57 h -120.42" /></g></g></svg>